# xmcd
# 
# Track frame offsets:
#     150
#     16897
#     32232
#     56625
#     77312
#     96925
#     122405
#     141650
#     164190
#     192587
# 
# Disc length: 2925
# 
# Revision: 5
# Processed by: cddbd v1.5.2PL0 Copyright (c) Steve Scherf et al.
# Submitted via: fre:ac v1.0.31
# 
DISCID=8a0b6b0a
DTITLE=Melvin Taylor and The Slack Band - Bang That Bell
DYEAR=2000
DGENRE=Blues
TTITLE0=Bang That Bell
TTITLE1=Love Is A Gamble
TTITLE2=Another Bad Day
TTITLE3=It's Later Than You Think
TTITLE4=My Life
TTITLE5=Trick Bag
TTITLE6=If You're Goin' To The City
TTITLE7=Don't Cloud Up On Me
TTITLE8=A Quitter Never Wins
TTITLE9=Even Trolls Love Rock and Roll
EXTD=
EXTT0=
EXTT1=
EXTT2=
EXTT3=
EXTT4=
EXTT5=
EXTT6=
EXTT7=
EXTT8=
EXTT9=
PLAYORDER=
